# File created by Blade
# Date/Time:  Wed Jan 21 17:47:32 2015
# Frame Rate: 120.000 fps
#------------------------------------------------------
:FULLY-SPECIFIED
:DEGREES
949
root 15.243352 31.617128 -18.694367 -144.452539 60.619564 -190.670856
Spine 51.911333 -9.821472 -8.085683
Head -13.654498 -27.069969 41.262007
LeftShoulder 18.510069 -39.350033 7.733887
LeftArm 40.775938 27.224484 -29.626644
LeftForeArm 9.547378 -0.000000 10.082880
LeftHand 10.182603 -0.000000 22.061561
LeftHandThumb1 -26.253704 0.000000 33.147579
RightShoulder -1.805061 0.519971 -1.267268
RightArm 6.083715 37.095358 39.523407
RightForeArm -3.880582 0.000000 10.310132
RightHand -15.556435 0.000000 -30.678678
RightHandThumb1 -24.326973 -0.000000 -32.862282
LeftUpLeg -19.362424 18.415875 -5.372815
LeftLeg -2.831835 -0.000000 0.000000
LeftFoot -36.620054 17.291406 -22.285814
LeftToeBase 28.450054 -0.000000 -0.000000
RightUpLeg -83.595420 -11.569722 6.572321
RightLeg 16.006415 -0.000000 -0.000000
RightFoot 3.967585 -28.853374 7.929470
RightToeBase 25.775294 -0.000000 -0.000000
950
root 15.288970 31.606976 -18.717837 -144.217530 60.369351 -190.313114
Spine 51.589090 -9.858339 -7.369102
Head -13.979438 -26.437261 40.834278
LeftShoulder 18.250273 -39.497114 7.664891
LeftArm 39.627547 27.343356 -31.602778
LeftForeArm 8.497020 -0.000000 9.523217
LeftHand 9.831473 -0.000000 22.103834
LeftHandThumb1 -26.253704 0.000000 33.147579
RightShoulder -1.457976 0.718025 -1.180450
RightArm 7.076185 37.127573 39.873854
RightForeArm -3.929870 -0.000000 10.124902
RightHand -15.318061 -0.000000 -30.044591
RightHandThumb1 -24.326973 -0.000000 -32.862282
LeftUpLeg -19.280820 18.424860 -5.074878
LeftLeg -2.715971 -0.000000 0.000000
LeftFoot -36.728031 17.230571 -22.229700
LeftToeBase 28.484963 -0.000000 -0.000000
RightUpLeg -83.827933 -11.731780 6.734898
RightLeg 16.890584 -0.000000 -0.000000
RightFoot 3.291819 -28.585554 8.368439
RightToeBase 25.883365 -0.000000 -0.000000
951
root 15.331012 31.598349 -18.739045 -143.945811 60.173691 -189.966974
Spine 51.225536 -9.807287 -6.617400
Head -14.382701 -25.968218 40.445487
LeftShoulder 18.092594 -39.855154 7.453287
LeftArm 38.271132 27.489501 -33.680926
LeftForeArm 7.972707 -0.000000 9.084935
LeftHand 9.939374 0.000000 21.646373
LeftHandThumb1 -26.253704 0.000000 33.147579
RightShoulder -1.222306 0.883801 -1.162835
RightArm 8.110585 37.092915 40.330348
RightForeArm -3.865296 -0.000000 9.940992
RightHand -14.978780 -0.000000 -29.669824
RightHandThumb1 -24.326973 -0.000000 -32.862282
LeftUpLeg -19.276660 18.498671 -4.838532
LeftLeg -2.569712 -0.000000 0.000000
LeftFoot -36.837075 17.129827 -22.136022
LeftToeBase 28.524823 -0.000000 -0.000000
RightUpLeg -84.130795 -11.831619 6.868680
RightLeg 17.806204 -0.000000 -0.000000
RightFoot 2.641233 -28.337388 9.052392
RightToeBase 25.666504 -0.000000 -0.000000
952
root 15.375436 31.589327 -18.766311 -143.750421 59.983055 -189.683634
Spine 50.902973 -9.816269 -5.945085
Head -14.735767 -25.467115 40.029314
LeftShoulder 17.776681 -39.954551 7.314703
LeftArm 37.035258 27.318630 -35.642576
LeftForeArm 7.192775 0.000000 8.773138
LeftHand 9.620444 -0.000000 21.725393
LeftHandThumb1 -26.253704 0.000000 33.147579
RightShoulder -0.930083 1.011337 -1.205105
RightArm 9.160284 37.264520 40.893657
RightForeArm -4.102241 -0.000000 9.945266
RightHand -14.946890 -0.000000 -29.185625
RightHandThumb1 -24.326973 -0.000000 -32.862282
LeftUpLeg -19.240313 18.614181 -4.644239
LeftLeg -2.444827 -0.000000 0.000000
LeftFoot -36.906287 16.972781 -22.055219
LeftToeBase 28.645503 -0.000000 -0.000000
RightUpLeg -84.419133 -11.954793 6.961315
RightLeg 18.736410 -0.000000 -0.000000
RightFoot 1.987578 -28.084898 9.517036
RightToeBase 25.992956 -0.000000 -0.000000
953
root 15.417327 31.579362 -18.796164 -143.627856 59.769332 -189.533368
Spine 50.534960 -9.863113 -5.272147
Head -15.098873 -24.948496 39.621984
LeftShoulder 17.461207 -39.974465 7.105961
LeftArm 35.866525 27.097696 -37.456410
LeftForeArm 6.754508 -0.000000 8.577375
LeftHand 9.438014 -0.000000 21.677184
LeftHandThumb1 -26.253704 0.000000 33.147579
RightShoulder -0.711993 1.114695 -1.257387
RightArm 10.275391 37.314827 41.457275
RightForeArm -4.279769 -0.000000 9.856640
RightHand -14.729061 -0.000000 -28.976284
RightHandThumb1 -24.326973 -0.000000 -32.862282
LeftUpLeg -19.252521 18.627404 -4.494966
LeftLeg -2.301579 -0.000000 0.000000
LeftFoot -36.962155 16.855755 -22.031721
LeftToeBase 28.578281 -0.000000 -0.000000
RightUpLeg -84.814475 -12.141519 7.063960
RightLeg 19.736713 -0.000000 -0.000000
RightFoot 1.318968 -27.858157 10.167394
RightToeBase 25.939031 -0.000000 -0.000000
